<svg xmlns="http://www.w3.org/2000/svg" width="400" height="400" viewBox="0 0 400 400">
  <defs>
    <linearGradient id="g" x1="0" y1="0" x2="0" y2="1">
      <stop offset="0%" stop-color="#ddd6fe"/>
      <stop offset="100%" stop-color="#8b5cf6"/>
    </linearGradient>
    <radialGradient id="shine" cx="35%" cy="25%" r="55%">
      <stop offset="0%" stop-color="#fff" stop-opacity="0.5"/>
      <stop offset="100%" stop-color="#fff" stop-opacity="0"/>
    </radialGradient>
  </defs>
  <rect width="400" height="400" fill="#f1f5f9"/>
  <ellipse cx="200" cy="355" rx="95" ry="18" fill="#cbd5e1" opacity="0.5"/>
  <rect x="138" y="48" width="124" height="268" rx="22" fill="url(#g)" stroke="#6d28d9" stroke-width="2.5"/>
  <rect x="138" y="48" width="124" height="268" rx="22" fill="url(#shine)"/>
  <rect x="168" y="28" width="64" height="32" rx="8" fill="#6d28d9"/>
  <g fill="#c4b5fd" stroke="#5b21b6" stroke-width="1.5">
    <ellipse cx="200" cy="168" rx="8" ry="14" transform="rotate(-15 200 168)"/>
    <ellipse cx="215" cy="178" rx="8" ry="14" transform="rotate(10 215 178)"/>
    <ellipse cx="185" cy="182" rx="8" ry="14" transform="rotate(-25 185 182)"/>
    <ellipse cx="200" cy="192" rx="8" ry="14"/>
  </g>
  <text x="200" y="268" text-anchor="middle" font-family="system-ui,sans-serif" font-size="20" font-weight="700" fill="#3b0764">LIMA</text>
  <text x="200" y="292" text-anchor="middle" font-family="system-ui,sans-serif" font-size="13" fill="#5b21b6">Lavanta Dus Jeli</text>
  <text x="200" y="318" text-anchor="middle" font-family="system-ui,sans-serif" font-size="12" fill="#64748b">500 ml</text>
</svg>
